<?xml version="1.0" encoding="utf-8"?>
<!-- Generator: Adobe Illustrator 21.1.0, SVG Export Plug-In . SVG Version: 6.00 Build 0)  -->
<svg version="1.1" id="Layer_1" xmlns="http://www.w3.org/2000/svg" xmlns:xlink="http://www.w3.org/1999/xlink" x="0px" y="0px"
	 viewBox="0 0 16 16" style="enable-background:new 0 0 16 16;" xml:space="preserve">
<g>
	<path d="M11.1,5.7c0,0.3,0,0.5,0.1,0.8c0.2-0.2,0.4-0.5,0.5-0.8C11.7,5.6,11.4,5.6,11.1,5.7z"/>
	<path d="M9.8,6.8c0,0.3,0.2,0.3,0.3,0.3c0.2,0,0.4-0.1,0.6-0.2c-0.1-0.3-0.1-0.6-0.1-1C10.1,6.1,9.8,6.5,9.8,6.8z"/>
	<path d="M15.9,6.2c0.2-2.1-1.6-4.1-4.1-4.3c-0.2,0-0.4,0-0.6,0C8.9,1.8,7,3.2,6.8,5.1C6.6,7.2,8.4,9.2,11,9.5c0.2,0,0.4,0,0.6,0
		c0.2,0,0.5,0,0.7,0c0.9,1,1.8,1.2,2.4,1.2c0.3,0,0.5-0.1,0.4-0.2c-0.8-0.6-0.9-1.2-0.9-1.7C15.1,8.3,15.8,7.3,15.9,6.2z M12.3,8.1
		L12,7.5c0.7-0.2,1.1-0.5,1.1-1c0-0.2-0.1-0.6-0.7-0.8c-0.2,0.6-0.6,1.1-1,1.4c0,0.1,0.2,0.3,0.2,0.4L11,7.9c0-0.1-0.2-0.3-0.2-0.4
		c-0.3,0.2-0.6,0.3-0.9,0.3C9.4,7.8,9.1,7.5,9.1,7c0-0.8,0.6-1.4,1.4-1.7c0-0.2,0-0.5,0-0.7c-0.4,0-0.9,0-1.1,0l0-0.6
		c0.3,0,0.7,0,1.1,0c0-0.2,0-0.5,0-0.7l0.7,0.1c0,0.1,0,0.5,0,0.7c0.6,0,1.4-0.1,2-0.2l0.1,0.7c-0.6,0.1-1.4,0.2-2.1,0.2
		c0,0.2,0,0.4,0,0.6C11.4,5,11.7,5,12,5c0-0.1,0-0.2,0-0.2l0.7,0.2c0,0.1,0,0.1,0,0.2c0.8,0.2,1.2,0.8,1.2,1.4
		C13.8,7.3,13.3,7.8,12.3,8.1z"/>
</g>
<g>
	<path d="M6.4,5.1c0-0.2,0.1-0.5,0.2-0.6C6.1,4.3,5.5,4.2,5,4.2c-0.2,0-0.4,0-0.6,0C1.8,4.6,0,6.5,0.2,8.6c0.1,1.1,0.8,2,1.8,2.6
		c0,0.5-0.1,1.1-0.9,1.7c-0.1,0.1,0,0.2,0.4,0.2c0.5,0,1.5-0.3,2.4-1.2c0.2,0,0.5,0,0.7,0c0.2,0,0.4,0,0.6,0
		c1.7-0.2,3.1-1.1,3.8-2.5C7.3,8.6,6.2,7,6.4,5.1z M5.5,10.4L5.1,9.2H3.9l-0.3,1.3H2.6l1.3-4.8h1.2l1.3,4.8H5.5z"/>
	<path d="M4.5,6.4L4.5,6.4c-0.1,0.3-0.2,0.7-0.2,1L4,8.5h1L4.7,7.4C4.6,7.1,4.6,6.7,4.5,6.4z"/>
</g>
</svg>
