<?xml version="1.0" encoding="UTF-8"?>
<svg width="411px" height="411px" viewBox="0 0 411 411" version="1.1" xmlns="http://www.w3.org/2000/svg" xmlns:xlink="http://www.w3.org/1999/xlink">
    <!-- Generator: Sketch 51.3 (57544) - http://www.bohemiancoding.com/sketch -->
    <title>Combined Shape</title>
    <desc>Created with Sketch.</desc>
    <defs>
        <linearGradient x1="100%" y1="0%" x2="0%" y2="100%" id="linearGradient-1">
            <stop stop-color="#F0C57B" offset="0%"></stop>
            <stop stop-color="#E58A59" offset="100%"></stop>
        </linearGradient>
    </defs>
    <g id="Page-1" stroke="none" stroke-width="1" fill="none" fill-rule="evenodd">
        <g id="Artboard-Copy-2" transform="translate(-51.000000, -51.000000)" fill="url(#linearGradient-1)" fill-rule="nonzero">
            <path d="M136,51 L377,51 C423.944204,51 462,89.0557963 462,136 L462,377 C462,423.944204 423.944204,462 377,462 L136,462 C89.0557963,462 51,423.944204 51,377 L51,136 C51,89.0557963 89.0557963,51 136,51 Z M392.28,234.44 C395.72,198.32 364.76,163.92 321.76,160.48 C318.32,160.48 314.88,160.48 311.44,160.48 C271.88,158.76 239.2,182.84 235.76,215.52 C232.32,251.64 263.28,286.04 308,291.2 C311.44,291.2 314.88,291.2 318.32,291.2 C321.76,291.2 326.92,291.2 330.36,291.2 C345.84,308.4 361.32,311.84 371.64,311.84 C376.8,311.84 380.24,310.12 378.52,308.4 C364.76,298.08 363.04,287.76 363.04,279.16 C378.52,270.56 390.56,253.36 392.28,234.44 Z M330.36,267.12 L325.2,256.8 C337.24,253.36 344.12,248.2 344.12,239.6 C344.12,236.16 342.4,229.28 332.08,225.84 C328.64,236.16 321.76,244.76 314.88,249.92 C314.88,251.64 318.32,255.08 318.32,256.8 L308,263.68 C308,261.96 304.56,258.52 304.56,256.8 C299.4,260.24 294.24,261.96 289.08,261.96 C280.48,261.96 275.32,256.8 275.32,248.2 C275.32,234.44 285.64,224.12 299.4,218.96 C299.4,215.52 299.4,210.36 299.4,206.92 C292.52,206.92 283.92,206.92 280.48,206.92 L280.48,196.6 C285.64,196.6 292.52,196.6 299.4,196.6 C299.4,193.16 299.4,188 299.4,184.56 L311.44,186.28 C311.44,188 311.44,194.88 311.44,198.32 C321.76,198.32 335.52,196.6 345.84,194.88 L347.56,206.92 C337.24,208.64 323.48,210.36 311.44,210.36 C311.44,213.8 311.44,217.24 311.44,220.68 C314.88,213.8 320.04,213.8 325.2,213.8 C325.2,212.08 325.2,210.36 325.2,210.36 L337.24,213.8 C337.24,215.52 337.24,215.52 337.24,217.24 C351,220.68 357.88,231 357.88,241.32 C356.16,253.36 347.56,261.96 330.36,267.12 Z M309.72,225.84 C309.72,231 309.72,234.44 311.44,239.6 C314.88,236.16 318.32,231 320.04,225.84 C320.04,224.12 314.88,224.12 309.72,225.84 Z M287.36,244.76 C287.36,249.92 290.8,249.92 292.52,249.92 C295.96,249.92 299.4,248.2 302.84,246.48 C301.12,241.32 301.12,236.16 301.12,229.28 C292.52,232.72 287.36,239.6 287.36,244.76 Z M229.222222,215.92 C229.222222,212.48 230.944444,207.32 232.666667,205.6 C224.055556,202.16 213.722222,200.44 205.111111,200.44 C201.666667,200.44 198.222222,200.44 194.777778,200.44 C150,207.32 119,240 122.444444,276.12 C124.166667,295.04 136.222222,310.52 153.444444,320.84 C153.444444,329.44 151.722222,339.76 137.944444,350.08 C136.222222,351.8 137.944444,353.52 144.833333,353.52 C153.444444,353.52 170.666667,348.36 186.166667,332.88 C189.611111,332.88 194.777778,332.88 198.222222,332.88 C201.666667,332.88 205.111111,332.88 208.555556,332.88 C237.833333,329.44 261.944444,313.96 274,289.88 C244.722222,276.12 225.777778,248.6 229.222222,215.92 Z M213.722222,307.08 L206.833333,286.44 L186.166667,286.44 L181,308.8 L163.777778,308.8 L186.166667,226.24 L206.833333,226.24 L229.222222,308.8 L213.722222,308.8 L213.722222,307.08 Z M196.5,238.28 C194.777778,243.44 193.055556,250.32 193.055556,255.48 L187.888889,274.4 L205.111111,274.4 L199.944444,255.48 C198.222222,250.32 198.222222,243.44 196.5,238.28 Z" id="Combined-Shape"></path>
        </g>
    </g>
</svg>